<mxfile host="app.diagrams.net" agent="Mozilla/5.0 (Windows NT 10.0; Win64; x64) AppleWebKit/537.36 (KHTML, like Gecko) Chrome/138.0.0.0 Safari/537.36" version="28.0.6">
  <diagram name="Page-1" id="cewM9V3wgzeIdzzE0K6y">
    <mxGraphModel dx="872" dy="439" grid="1" gridSize="10" guides="1" tooltips="1" connect="1" arrows="1" fold="1" page="1" pageScale="1" pageWidth="827" pageHeight="1169" math="0" shadow="0">
      <root>
        <mxCell id="0" />
        <mxCell id="1" parent="0" />
        <mxCell id="-yidguBsaEa_nKnejZ_p-1" value="" style="rounded=0;whiteSpace=wrap;html=1;rotation=90;fillColor=none;dashed=1;strokeColor=#6A6A6A;" parent="1" vertex="1">
          <mxGeometry x="-98.88" y="436.29" width="460.09" height="145" as="geometry" />
        </mxCell>
        <mxCell id="-yidguBsaEa_nKnejZ_p-2" value="sources" style="rounded=0;whiteSpace=wrap;html=1;fontFamily=Helvetica;fontSize=24;textShadow=1;strokeColor=none;" parent="1" vertex="1">
          <mxGeometry x="67.5" y="250" width="130" height="51.25" as="geometry" />
        </mxCell>
        <mxCell id="-yidguBsaEa_nKnejZ_p-4" value="" style="rounded=0;whiteSpace=wrap;html=1;fillColor=none;dashed=1;strokeColor=light-dark(#797777, #ededed);" parent="1" vertex="1">
          <mxGeometry x="260" y="280" width="360" height="460" as="geometry" />
        </mxCell>
        <mxCell id="-yidguBsaEa_nKnejZ_p-5" value="DATA WAREHOUSE" style="rounded=0;whiteSpace=wrap;html=1;strokeColor=none;fontSize=18;" parent="1" vertex="1">
          <mxGeometry x="320" y="250" width="200" height="60" as="geometry" />
        </mxCell>
        <mxCell id="-yidguBsaEa_nKnejZ_p-8" value="" style="rounded=0;whiteSpace=wrap;html=1;fillColor=none;dashed=1;strokeColor=#909090;" parent="1" vertex="1">
          <mxGeometry x="660" y="280" width="120" height="460" as="geometry" />
        </mxCell>
        <mxCell id="-yidguBsaEa_nKnejZ_p-10" value="consume" style="rounded=0;whiteSpace=wrap;html=1;fontSize=18;strokeColor=none;" parent="1" vertex="1">
          <mxGeometry x="660" y="245.63" width="120" height="60" as="geometry" />
        </mxCell>
        <mxCell id="-yidguBsaEa_nKnejZ_p-11" value="Bronze LAyer" style="rounded=0;whiteSpace=wrap;html=1;fillColor=#fad7ac;strokeColor=#b46504;align=center;verticalAlign=middle;fontFamily=Helvetica;fontSize=12;fontColor=default;" parent="1" vertex="1">
          <mxGeometry x="270" y="310" width="90" height="20" as="geometry" />
        </mxCell>
        <mxCell id="-yidguBsaEa_nKnejZ_p-17" value="" style="rounded=0;whiteSpace=wrap;html=1;fillColor=none;strokeColor=#FFB570;" parent="1" vertex="1">
          <mxGeometry x="271.21" y="330" width="98.79" height="380" as="geometry" />
        </mxCell>
        <mxCell id="-yidguBsaEa_nKnejZ_p-22" value="" style="rounded=0;whiteSpace=wrap;html=1;fillColor=none;strokeColor=#666666;gradientColor=#b3b3b3;" parent="1" vertex="1">
          <mxGeometry x="380" y="330" width="110" height="380" as="geometry" />
        </mxCell>
        <mxCell id="-yidguBsaEa_nKnejZ_p-23" value="" style="rounded=0;whiteSpace=wrap;html=1;fillColor=none;strokeColor=#d79b00;gradientColor=#ffa500;" parent="1" vertex="1">
          <mxGeometry x="500" y="325" width="110" height="385" as="geometry" />
        </mxCell>
        <mxCell id="-yidguBsaEa_nKnejZ_p-26" value="Silver LAyer" style="rounded=0;whiteSpace=wrap;html=1;strokeColor=#666666;align=center;verticalAlign=middle;fontFamily=Helvetica;fontSize=12;fillColor=#f5f5f5;gradientColor=#b3b3b3;" parent="1" vertex="1">
          <mxGeometry x="380" y="307.5" width="95" height="22.5" as="geometry" />
        </mxCell>
        <mxCell id="-yidguBsaEa_nKnejZ_p-28" value="Gold Layer" style="rounded=0;whiteSpace=wrap;html=1;strokeColor=#d79b00;align=center;verticalAlign=middle;fontFamily=Helvetica;fontSize=12;fillColor=#ffcd28;gradientColor=#ffa500;" parent="1" vertex="1">
          <mxGeometry x="500" y="301.25" width="90" height="21.25" as="geometry" />
        </mxCell>
        <mxCell id="-yidguBsaEa_nKnejZ_p-29" value="CRM" style="image;aspect=fixed;html=1;points=[];align=center;fontSize=12;image=img/lib/azure2/general/Folder_Blank.svg;" parent="1" vertex="1">
          <mxGeometry x="90" y="320" width="49.29" height="40" as="geometry" />
        </mxCell>
        <mxCell id="-yidguBsaEa_nKnejZ_p-46" value="" style="verticalLabelPosition=bottom;html=1;verticalAlign=top;align=center;strokeColor=none;fillColor=#00BEF2;shape=mxgraph.azure.cloud_services_configuration_file;pointerEvents=1;" parent="1" vertex="1">
          <mxGeometry x="119.28999999999999" y="340" width="20" height="20" as="geometry" />
        </mxCell>
        <mxCell id="-yidguBsaEa_nKnejZ_p-48" value="" style="verticalLabelPosition=bottom;html=1;verticalAlign=top;align=center;strokeColor=none;fillColor=#00BEF2;shape=mxgraph.azure.cloud_services_configuration_file;pointerEvents=1;" parent="1" vertex="1">
          <mxGeometry x="119.28999999999999" y="430" width="20" height="20" as="geometry" />
        </mxCell>
        <mxCell id="-yidguBsaEa_nKnejZ_p-52" value="ERP" style="image;aspect=fixed;html=1;points=[];align=center;fontSize=12;image=img/lib/azure2/general/Folder_Blank.svg;" parent="1" vertex="1">
          <mxGeometry x="100" y="410" width="49.28" height="40" as="geometry" />
        </mxCell>
        <mxCell id="-yidguBsaEa_nKnejZ_p-53" value="" style="verticalLabelPosition=bottom;html=1;verticalAlign=top;align=center;strokeColor=none;fillColor=#00BEF2;shape=mxgraph.azure.cloud_services_configuration_file;pointerEvents=1;" parent="1" vertex="1">
          <mxGeometry x="130" y="430" width="20" height="20" as="geometry" />
        </mxCell>
        <mxCell id="-yidguBsaEa_nKnejZ_p-55" value="" style="endArrow=none;html=1;rounded=0;" parent="1" edge="1">
          <mxGeometry width="50" height="50" relative="1" as="geometry">
            <mxPoint x="93.39" y="490" as="sourcePoint" />
            <mxPoint x="155.89" y="490" as="targetPoint" />
            <Array as="points">
              <mxPoint x="60" y="490" />
              <mxPoint x="200" y="490" />
            </Array>
          </mxGeometry>
        </mxCell>
        <mxCell id="-yidguBsaEa_nKnejZ_p-56" value="&lt;b&gt;Object Type&lt;/b&gt;: CSV Files&lt;div&gt;&lt;br&gt;&lt;div&gt;I&lt;b&gt;nterface&lt;/b&gt;: Files in Folder&lt;/div&gt;&lt;/div&gt;" style="text;html=1;align=center;verticalAlign=middle;whiteSpace=wrap;rounded=0;fontSize=11;" parent="1" vertex="1">
          <mxGeometry x="64.29" y="500" width="130" height="30" as="geometry" />
        </mxCell>
        <mxCell id="-yidguBsaEa_nKnejZ_p-58" value="" style="sketch=0;shadow=0;dashed=0;html=1;strokeColor=#36393d;labelPosition=center;verticalLabelPosition=bottom;verticalAlign=top;outlineConnect=0;align=center;shape=mxgraph.office.databases.database_mini_3;fillColor=#ffcc99;" parent="1" vertex="1">
          <mxGeometry x="302.41" y="393" width="27.59" height="37" as="geometry" />
        </mxCell>
        <mxCell id="-yidguBsaEa_nKnejZ_p-59" value="" style="sketch=0;shadow=0;dashed=0;html=1;strokeColor=#36393d;labelPosition=center;verticalLabelPosition=bottom;verticalAlign=top;outlineConnect=0;align=center;shape=mxgraph.office.databases.database_mini_3;fillColor=#eeeeee;" parent="1" vertex="1">
          <mxGeometry x="413.7" y="393" width="27.59" height="37" as="geometry" />
        </mxCell>
        <mxCell id="-yidguBsaEa_nKnejZ_p-60" value="" style="sketch=0;shadow=0;dashed=0;html=1;strokeColor=#d79b00;labelPosition=center;verticalLabelPosition=bottom;verticalAlign=top;outlineConnect=0;align=center;shape=mxgraph.office.databases.database_mini_3;fillColor=#ffcd28;gradientColor=#ffa500;" parent="1" vertex="1">
          <mxGeometry x="531.2" y="390" width="27.59" height="37" as="geometry" />
        </mxCell>
        <mxCell id="-yidguBsaEa_nKnejZ_p-61" value="" style="shape=flexArrow;endArrow=classic;html=1;rounded=0;fillColor=#99CCFF;" parent="1" edge="1">
          <mxGeometry width="50" height="50" relative="1" as="geometry">
            <mxPoint x="210" y="410" as="sourcePoint" />
            <mxPoint x="260" y="405" as="targetPoint" />
            <Array as="points">
              <mxPoint x="210" y="405" />
            </Array>
          </mxGeometry>
        </mxCell>
        <mxCell id="-yidguBsaEa_nKnejZ_p-62" value="" style="shape=flexArrow;endArrow=classic;html=1;rounded=0;fillColor=#99CCFF;" parent="1" edge="1">
          <mxGeometry width="50" height="50" relative="1" as="geometry">
            <mxPoint x="360" y="415" as="sourcePoint" />
            <mxPoint x="400" y="410" as="targetPoint" />
            <Array as="points">
              <mxPoint x="360" y="410" />
            </Array>
          </mxGeometry>
        </mxCell>
        <mxCell id="-yidguBsaEa_nKnejZ_p-63" value="" style="shape=flexArrow;endArrow=classic;html=1;rounded=0;fillColor=#99CCFF;width=8;endSize=6.33;" parent="1" edge="1">
          <mxGeometry width="50" height="50" relative="1" as="geometry">
            <mxPoint x="470" y="405" as="sourcePoint" />
            <mxPoint x="510" y="400" as="targetPoint" />
            <Array as="points">
              <mxPoint x="470" y="400" />
            </Array>
          </mxGeometry>
        </mxCell>
        <mxCell id="-yidguBsaEa_nKnejZ_p-64" value="" style="shape=flexArrow;endArrow=classic;html=1;rounded=0;fillColor=#99CCFF;exitX=1.044;exitY=0.281;exitDx=0;exitDy=0;exitPerimeter=0;" parent="1" source="-yidguBsaEa_nKnejZ_p-23" edge="1">
          <mxGeometry width="50" height="50" relative="1" as="geometry">
            <mxPoint x="630" y="405" as="sourcePoint" />
            <mxPoint x="690" y="433" as="targetPoint" />
            <Array as="points" />
          </mxGeometry>
        </mxCell>
        <mxCell id="-yidguBsaEa_nKnejZ_p-66" value="Raw Data" style="text;html=1;align=center;verticalAlign=middle;whiteSpace=wrap;rounded=0;" parent="1" vertex="1">
          <mxGeometry x="280" y="430" width="60" height="30" as="geometry" />
        </mxCell>
        <mxCell id="-yidguBsaEa_nKnejZ_p-67" value="Cleaned Standardized Data" style="text;html=1;align=center;verticalAlign=middle;whiteSpace=wrap;rounded=0;fontSize=9;" parent="1" vertex="1">
          <mxGeometry x="395" y="440" width="60" height="30" as="geometry" />
        </mxCell>
        <mxCell id="-yidguBsaEa_nKnejZ_p-68" value="&lt;font style=&quot;font-size: 10px;&quot;&gt;Buisness Ready Data&lt;/font&gt;" style="text;html=1;align=center;verticalAlign=middle;whiteSpace=wrap;rounded=0;" parent="1" vertex="1">
          <mxGeometry x="515" y="435" width="60" height="30" as="geometry" />
        </mxCell>
        <mxCell id="-yidguBsaEa_nKnejZ_p-70" value="" style="endArrow=none;html=1;rounded=0;entryX=1.01;entryY=0.403;entryDx=0;entryDy=0;entryPerimeter=0;" parent="1" target="-yidguBsaEa_nKnejZ_p-17" edge="1">
          <mxGeometry width="50" height="50" relative="1" as="geometry">
            <mxPoint x="275" y="480" as="sourcePoint" />
            <mxPoint x="330" y="420" as="targetPoint" />
            <Array as="points">
              <mxPoint x="315" y="480" />
            </Array>
          </mxGeometry>
        </mxCell>
        <mxCell id="-yidguBsaEa_nKnejZ_p-71" value="" style="endArrow=none;html=1;rounded=0;" parent="1" edge="1">
          <mxGeometry width="50" height="50" relative="1" as="geometry">
            <mxPoint x="410" y="480" as="sourcePoint" />
            <mxPoint x="470" y="480" as="targetPoint" />
            <Array as="points">
              <mxPoint x="390" y="480" />
            </Array>
          </mxGeometry>
        </mxCell>
        <mxCell id="-yidguBsaEa_nKnejZ_p-72" value="" style="endArrow=none;html=1;rounded=0;entryX=0.889;entryY=0.403;entryDx=0;entryDy=0;entryPerimeter=0;exitX=0;exitY=0.41;exitDx=0;exitDy=0;exitPerimeter=0;" parent="1" source="-yidguBsaEa_nKnejZ_p-23" target="-yidguBsaEa_nKnejZ_p-23" edge="1">
          <mxGeometry width="50" height="50" relative="1" as="geometry">
            <mxPoint x="530" y="510" as="sourcePoint" />
            <mxPoint x="616" y="510" as="targetPoint" />
            <Array as="points">
              <mxPoint x="540" y="480" />
            </Array>
          </mxGeometry>
        </mxCell>
        <mxCell id="-yidguBsaEa_nKnejZ_p-73" value="&lt;font&gt;&lt;b&gt;Object Type&lt;/b&gt;:Table&lt;/font&gt;&lt;div&gt;&lt;font&gt;&lt;b&gt;Load&lt;/b&gt;: Batch Processing&lt;/font&gt;&lt;/div&gt;&lt;div&gt;&lt;font&gt;&lt;span style=&quot;white-space: pre;&quot;&gt;&#x9;&lt;/span&gt;&lt;b&gt;. &lt;/b&gt;Full Load &lt;span style=&quot;white-space: pre;&quot;&gt;&#x9;&lt;/span&gt;(Trunc &amp;amp; insert)&lt;/font&gt;&lt;/div&gt;&lt;div&gt;&lt;font&gt;&lt;b&gt;Data Model&lt;/b&gt;: None(As-is)&lt;/font&gt;&lt;/div&gt;&lt;div&gt;&lt;font&gt;&lt;b&gt;No Transformation&lt;/b&gt;&lt;/font&gt;&lt;/div&gt;" style="text;html=1;align=center;verticalAlign=middle;whiteSpace=wrap;rounded=0;fontSize=13;" parent="1" vertex="1">
          <mxGeometry x="270" y="520" width="100" height="90" as="geometry" />
        </mxCell>
        <mxCell id="cMiPhUZO-H78a_aqY7fq-1" value="" style="edgeStyle=orthogonalEdgeStyle;rounded=0;orthogonalLoop=1;jettySize=auto;html=1;" edge="1" parent="1" source="-yidguBsaEa_nKnejZ_p-75" target="-yidguBsaEa_nKnejZ_p-23">
          <mxGeometry relative="1" as="geometry" />
        </mxCell>
        <mxCell id="-yidguBsaEa_nKnejZ_p-75" value="&lt;font&gt;&lt;b&gt;Object Type&lt;/b&gt;:Table&lt;/font&gt;&lt;div&gt;&lt;font&gt;&lt;b&gt;Load&lt;/b&gt;: Batch Processing&lt;/font&gt;&lt;/div&gt;&lt;div&gt;&lt;font&gt;&lt;span style=&quot;white-space: pre;&quot;&gt;&#x9;&lt;/span&gt;&lt;b&gt;&lt;font style=&quot;font-size: 18px;&quot;&gt;.&lt;/font&gt;&lt;/b&gt;Full Load (Trunc &amp;amp; insert)&lt;/font&gt;&lt;/div&gt;&lt;div&gt;&lt;font&gt;&lt;b&gt;Data Model&lt;/b&gt;: None(As-is)&lt;/font&gt;&lt;/div&gt;" style="text;html=1;align=center;verticalAlign=middle;whiteSpace=wrap;rounded=0;fontSize=14;" parent="1" vertex="1">
          <mxGeometry x="380" y="520" width="100" height="80" as="geometry" />
        </mxCell>
        <mxCell id="cMiPhUZO-H78a_aqY7fq-2" value="&lt;font&gt;&lt;b&gt;Object Type&lt;/b&gt;:Views&lt;/font&gt;&lt;div&gt;&lt;font&gt;&lt;b&gt;No Load&lt;/b&gt;&lt;/font&gt;&lt;/div&gt;&lt;div&gt;&lt;font&gt;&lt;b&gt;Data Model&lt;/b&gt;: Star schema&lt;/font&gt;&lt;/div&gt;&lt;div&gt;&lt;font&gt;Flat Table&amp;nbsp;&lt;/font&gt;&lt;/div&gt;&lt;div&gt;&lt;font&gt;Aggregated table&lt;/font&gt;&lt;/div&gt;" style="text;html=1;align=center;verticalAlign=middle;whiteSpace=wrap;rounded=0;fontSize=14;" vertex="1" parent="1">
          <mxGeometry x="500" y="510" width="100" height="120" as="geometry" />
        </mxCell>
        <mxCell id="cMiPhUZO-H78a_aqY7fq-4" value="" style="image;aspect=fixed;html=1;points=[];align=center;fontSize=12;image=img/lib/azure2/analytics/Power_BI_Embedded.svg;" vertex="1" parent="1">
          <mxGeometry x="680" y="325" width="33" height="44" as="geometry" />
        </mxCell>
        <mxCell id="cMiPhUZO-H78a_aqY7fq-5" value="" style="pointerEvents=1;verticalLabelPosition=bottom;shadow=0;dashed=0;align=center;html=1;verticalAlign=top;shape=mxgraph.electrical.waveforms.pulse_1;" vertex="1" parent="1">
          <mxGeometry x="370" y="450" width="90" height="90" as="geometry" />
        </mxCell>
        <mxCell id="cMiPhUZO-H78a_aqY7fq-6" value="" style="pointerEvents=1;verticalLabelPosition=bottom;shadow=0;dashed=0;align=center;html=1;verticalAlign=top;shape=mxgraph.electrical.waveforms.pulse_1;" vertex="1" parent="1">
          <mxGeometry x="370" y="450" width="90" height="90" as="geometry" />
        </mxCell>
        <mxCell id="cMiPhUZO-H78a_aqY7fq-7" value="" style="pointerEvents=1;verticalLabelPosition=bottom;shadow=0;dashed=0;align=center;html=1;verticalAlign=top;shape=mxgraph.electrical.waveforms.pulse_1;fontColor=#FFFFFF;strokeColor=#F6F6F6;fillColor=default;" vertex="1" parent="1">
          <mxGeometry x="370" y="450" width="90" height="90" as="geometry" />
        </mxCell>
        <mxCell id="cMiPhUZO-H78a_aqY7fq-15" value="" style="points=[];aspect=fixed;html=1;align=center;shadow=0;dashed=0;fillColor=#FF6A00;strokeColor=none;shape=mxgraph.alibaba_cloud.nlp-automl;" vertex="1" parent="1">
          <mxGeometry x="720" y="335" width="30.76" height="30" as="geometry" />
        </mxCell>
        <mxCell id="cMiPhUZO-H78a_aqY7fq-16" value="&lt;b&gt;BI &amp;amp; Reporting&lt;/b&gt;" style="text;html=1;align=center;verticalAlign=middle;whiteSpace=wrap;rounded=0;" vertex="1" parent="1">
          <mxGeometry x="660" y="370" width="110" height="30" as="geometry" />
        </mxCell>
        <mxCell id="cMiPhUZO-H78a_aqY7fq-17" value="" style="shadow=0;dashed=0;html=1;strokeColor=none;fillColor=#4495D1;labelPosition=center;verticalLabelPosition=bottom;verticalAlign=top;align=center;outlineConnect=0;shape=mxgraph.veeam.magnifying_glass;pointerEvents=1;" vertex="1" parent="1">
          <mxGeometry x="695.56" y="436.29" width="34.44" height="33.71" as="geometry" />
        </mxCell>
        <mxCell id="cMiPhUZO-H78a_aqY7fq-18" value="&lt;b&gt;Ad-Hoc&amp;nbsp;&lt;/b&gt;&lt;div&gt;&lt;b&gt;SQL Query&lt;/b&gt;&lt;/div&gt;" style="text;html=1;align=center;verticalAlign=middle;whiteSpace=wrap;rounded=0;" vertex="1" parent="1">
          <mxGeometry x="670" y="480" width="100" height="30" as="geometry" />
        </mxCell>
        <mxCell id="cMiPhUZO-H78a_aqY7fq-19" value="" style="sketch=0;points=[[0,0,0],[0.25,0,0],[0.5,0,0],[0.75,0,0],[1,0,0],[0,1,0],[0.25,1,0],[0.5,1,0],[0.75,1,0],[1,1,0],[0,0.25,0],[0,0.5,0],[0,0.75,0],[1,0.25,0],[1,0.5,0],[1,0.75,0]];outlineConnect=0;fontColor=#232F3E;fillColor=#01A88D;strokeColor=#ffffff;dashed=0;verticalLabelPosition=bottom;verticalAlign=top;align=center;html=1;fontSize=12;fontStyle=0;aspect=fixed;shape=mxgraph.aws4.resourceIcon;resIcon=mxgraph.aws4.machine_learning;" vertex="1" parent="1">
          <mxGeometry x="695" y="560" width="50" height="50" as="geometry" />
        </mxCell>
        <mxCell id="cMiPhUZO-H78a_aqY7fq-20" value="&lt;b&gt;&lt;font style=&quot;font-size: 14px;&quot;&gt;Machine &lt;font style=&quot;&quot;&gt;Learning&lt;/font&gt;&lt;/font&gt;&lt;/b&gt;" style="text;html=1;align=center;verticalAlign=middle;whiteSpace=wrap;rounded=0;" vertex="1" parent="1">
          <mxGeometry x="670" y="620" width="100" height="30" as="geometry" />
        </mxCell>
      </root>
    </mxGraphModel>
  </diagram>
</mxfile>
